<svg width="24" height="24" viewBox="0 0 24 24" fill="none" xmlns="http://www.w3.org/2000/svg">
<g clip-path="url(#clip0_1723_391385)">
<path fill-rule="evenodd" clip-rule="evenodd" d="M5.49338 10.1679C6.48674 9.60466 7.72595 8.95093 8.93652 8.44083C10.1808 7.9165 11.2677 7.59998 12.0001 7.59998C12.5689 7.59998 13.3715 7.79308 14.3238 8.14678C15.2553 8.49276 16.2465 8.96021 17.1638 9.4372C18.0783 9.91278 18.9038 10.3896 19.5012 10.7481C19.7995 10.9271 20.0399 11.0759 20.2049 11.1794C20.2873 11.2312 20.3509 11.2716 20.3933 11.2987L20.4409 11.3292L20.4523 11.3366L20.4552 11.3385C20.9183 11.6394 21.5376 11.508 21.8386 11.045C22.1395 10.5819 22.0075 9.96211 21.5445 9.66112L21.5392 9.65773L21.5247 9.64837L21.4707 9.61367C21.4238 9.58368 21.3555 9.54029 21.268 9.4854C21.0931 9.37565 20.8413 9.21977 20.5302 9.03312C19.909 8.66035 19.0469 8.16219 18.0865 7.66277C17.1288 7.16475 16.0574 6.6572 15.0202 6.27193C14.0037 5.89438 12.9314 5.59998 12.0001 5.59998C10.84 5.59998 9.43723 6.05953 8.15989 6.59777C6.84882 7.15023 5.53433 7.84555 4.50685 8.42819C3.90336 8.7704 3.39297 9.07711 3.03272 9.29873C2.85249 9.40961 2.70953 9.49938 2.61095 9.56187C2.56165 9.59312 2.52343 9.61756 2.49717 9.63443L2.46685 9.65395L2.45862 9.65928L2.45513 9.66154C1.99207 9.96253 1.86068 10.5819 2.16167 11.045C2.46266 11.508 3.08209 11.6394 3.54515 11.3384L3.54637 11.3376L3.55232 11.3338L3.57794 11.3173C3.60101 11.3024 3.6359 11.2801 3.68172 11.2511C3.77339 11.193 3.90872 11.108 4.08068 11.0022C4.42483 10.7905 4.91443 10.4962 5.49338 10.1679ZM8.48588 13.4963C9.12121 13.1433 9.86424 12.7551 10.5473 12.458C11.282 12.1384 11.7823 12 12.0001 12C12.218 12 12.7183 12.1384 13.453 12.458C14.136 12.7551 14.8791 13.1433 15.5144 13.4963C15.9344 13.7297 16.3002 13.9438 16.5607 14.0993C16.6909 14.177 16.7944 14.2399 16.8648 14.2831L16.9448 14.3322L16.9646 14.3445L16.9702 14.3481C17.4385 14.6407 18.0554 14.4983 18.3481 14.03C18.6408 13.5617 18.4984 12.9447 18.0301 12.652L18.0292 12.6514L18.0209 12.6463L17.9973 12.6316L17.9091 12.5774C17.833 12.5308 17.7231 12.464 17.586 12.3821C17.3121 12.2186 16.9279 11.9938 16.4859 11.7481C15.8249 11.3808 15.0184 10.9579 14.2508 10.624C13.5348 10.3125 12.6832 9.99999 12.0001 10C11.3171 10 10.4655 10.3125 9.74952 10.624C8.98186 10.9579 8.17535 11.3808 7.51439 11.7481C7.07238 11.9938 6.68821 12.2186 6.41425 12.3821C6.27713 12.464 6.16725 12.5308 6.09113 12.5774L6.00297 12.6316L5.97934 12.6463L5.97014 12.652C5.5018 12.9447 5.35943 13.5617 5.65213 14.03C5.94483 14.4983 6.56182 14.6407 7.03015 14.348L7.03568 14.3445L7.0555 14.3323L7.13546 14.2831C7.2059 14.2399 7.3094 14.177 7.43953 14.0993C7.70009 13.9438 8.06592 13.7297 8.48588 13.4963ZM9.70149 17.001C9.70149 17.4138 9.89182 17.6347 10.2725 18.0766C10.3712 18.1911 10.4763 18.3059 10.5863 18.4159C10.6963 18.5259 10.811 18.631 10.9256 18.7297C11.3675 19.1103 11.5884 19.3007 12.0012 19.3007C12.414 19.3007 12.6349 19.1103 13.0768 18.7297C13.1913 18.631 13.3061 18.5259 13.4161 18.4159C13.5261 18.3059 13.6312 18.1911 13.7299 18.0766C14.1106 17.6347 14.3009 17.4138 14.3009 17.001C14.3009 16.5882 14.1106 16.3672 13.7299 15.9254C13.6312 15.8108 13.5261 15.696 13.4161 15.5861C13.3061 15.4761 13.1913 15.3709 13.0768 15.2723C12.6349 14.8916 12.414 14.7013 12.0012 14.7013C11.5884 14.7013 11.3675 14.8916 10.9256 15.2723C10.811 15.3709 10.6963 15.4761 10.5863 15.5861C10.4763 15.696 10.3712 15.8108 10.2725 15.9254C9.89182 16.3672 9.70149 16.5882 9.70149 17.001Z" fill="black"/>
</g>
<defs>
<clipPath id="clip0_1723_391385">
<rect width="24" height="24" rx="12" fill="white"/>
</clipPath>
</defs>
</svg>
